<?xml version="1.0" encoding="UTF-8" standalone="no"?><svg xmlns="http://www.w3.org/2000/svg" xmlns:xlink="http://www.w3.org/1999/xlink" contentScriptType="application/ecmascript" contentStyleType="text/css" height="390.808px" preserveAspectRatio="none" style="width:1025px;height:390px;" version="1.1" viewBox="0 0 1025 390" width="1025.2473px" zoomAndPan="magnify"><defs><filter height="300%" id="f19tztg0nthtd3" width="300%" x="-1" y="-1"><feGaussianBlur result="blurOut" stdDeviation="1.663012586276898"/><feColorMatrix in="blurOut" result="blurOut2" type="matrix" values="0 0 0 0 0 0 0 0 0 0 0 0 0 0 0 0 0 0 .4 0"/><feOffset dx="3.326025172553796" dy="3.326025172553796" in="blurOut2" result="blurOut3"/><feBlend in="SourceGraphic" in2="blurOut3" mode="normal"/></filter></defs><g><rect fill="#FFFFFF" height="370.6829" style="stroke:#FFFFFF;stroke-width:0.831506293138449;" width="120.5684" x="12.4726" y="10.5976"/><ellipse cx="70.678" cy="40.4929" fill="#000000" filter="url(#f19tztg0nthtd3)" rx="8.3151" ry="8.3151" style="stroke:none;stroke-width:0.831506293138449;"/><line style="stroke:#000000;stroke-width:1.663012586276898;" x1="12.4726" x2="12.4726" y1="10.5976" y2="381.2806"/><rect fill="#FFFFFF" height="370.6829" style="stroke:#FFFFFF;stroke-width:0.831506293138449;" width="144.6821" x="133.041" y="10.5976"/><rect fill="#F8F8F8" filter="url(#f19tztg0nthtd3)" height="28.2452" rx="10.3938" ry="10.3938" style="stroke:#383838;stroke-width:1.2472594397076735;" width="66.5205" x="202.8875" y="65.4381"/><text fill="#000000" font-family="sans-serif" font-size="9.9781" lengthAdjust="spacingAndGlyphs" textLength="49.8904" x="211.2026" y="83.015">起票の連絡</text><rect fill="#F8F8F8" filter="url(#f19tztg0nthtd3)" height="28.2452" rx="10.3938" ry="10.3938" style="stroke:#383838;stroke-width:1.2472594397076735;" width="56.5424" x="138.03" y="204.2477"/><text fill="#000000" font-family="sans-serif" font-size="9.9781" lengthAdjust="spacingAndGlyphs" textLength="39.9123" x="146.3451" y="221.8246">一時対応</text><ellipse cx="166.3013" cy="270.7422" fill="#FFFFFF" filter="url(#f19tztg0nthtd3)" rx="9.1466" ry="9.1466" style="stroke:#000000;stroke-width:0.831506293138449;"/><ellipse cx="166.3013" cy="270.7422" fill="#000000" rx="4.989" ry="4.989" style="stroke:#7F7F7F;stroke-width:0.831506293138449;"/><line style="stroke:#000000;stroke-width:1.663012586276898;" x1="133.041" x2="133.041" y1="10.5976" y2="381.2806"/><rect fill="#D3D3D3" height="370.6829" style="stroke:#D3D3D3;stroke-width:0.831506293138449;" width="351.3114" x="277.7231" y="10.5976"/><polygon fill="#F8F8F8" filter="url(#f19tztg0nthtd3)" points="393.9261,110.3134,421.3658,110.3134,431.3439,120.2915,421.3658,130.2696,393.9261,130.2696,383.948,120.2915,393.9261,110.3134" style="stroke:#383838;stroke-width:1.2472594397076735;"/><text fill="#000000" font-family="sans-serif" font-size="9.1466" lengthAdjust="spacingAndGlyphs" textLength="27.4397" x="393.9261" y="123.458">緊急度</text><text fill="#000000" font-family="sans-serif" font-size="9.1466" lengthAdjust="spacingAndGlyphs" textLength="29.9342" x="354.0138" y="118.1344">緊急,高</text><rect fill="#F8F8F8" filter="url(#f19tztg0nthtd3)" height="28.2452" rx="10.3938" ry="10.3938" style="stroke:#383838;stroke-width:1.2472594397076735;" width="64.026" x="282.7121" y="146.8997"/><text fill="#000000" font-family="sans-serif" font-size="9.9781" lengthAdjust="spacingAndGlyphs" textLength="47.3959" x="291.0272" y="164.4767">label 実装</text><polygon fill="#F8F8F8" filter="url(#f19tztg0nthtd3)" points="479.3634,146.8997,506.8031,146.8997,516.7812,156.8778,506.8031,166.8559,479.3634,166.8559,469.3853,156.8778,479.3634,146.8997" style="stroke:#383838;stroke-width:1.2472594397076735;"/><text fill="#000000" font-family="sans-serif" font-size="9.1466" lengthAdjust="spacingAndGlyphs" textLength="27.4397" x="479.3634" y="160.0443">緊急度</text><text fill="#000000" font-family="sans-serif" font-size="9.1466" lengthAdjust="spacingAndGlyphs" textLength="9.1466" x="460.2387" y="154.7207">中</text><text fill="#000000" font-family="sans-serif" font-size="9.1466" lengthAdjust="spacingAndGlyphs" textLength="9.1466" x="516.7812" y="154.7207">低</text><rect fill="#F8F8F8" filter="url(#f19tztg0nthtd3)" height="28.2452" rx="10.3938" ry="10.3938" style="stroke:#383838;stroke-width:1.2472594397076735;" width="64.026" x="387.8977" y="183.486"/><text fill="#000000" font-family="sans-serif" font-size="9.9781" lengthAdjust="spacingAndGlyphs" textLength="47.3959" x="396.2127" y="201.0629">label 実装</text><rect fill="#F8F8F8" filter="url(#f19tztg0nthtd3)" height="28.2452" rx="10.3938" ry="10.3938" style="stroke:#383838;stroke-width:1.2472594397076735;" width="93.9602" x="526.7592" y="183.486"/><text fill="#000000" font-family="sans-serif" font-size="9.9781" lengthAdjust="spacingAndGlyphs" textLength="77.3301" x="535.0743" y="201.0629">label トリアージ</text><line style="stroke:#000000;stroke-width:1.663012586276898;" x1="277.7231" x2="277.7231" y1="10.5976" y2="381.2806"/><rect fill="#D3D3D3" height="370.6829" style="stroke:#D3D3D3;stroke-width:0.831506293138449;" width="127.2205" x="629.0345" y="10.5976"/><path d="M633.192,244.5075 L633.192,265.4056 A0,0 0 0 0 633.192,265.4056 L674.7674,265.4056 A0,0 0 0 0 674.7674,265.4056 L674.7674,259.4746 L691.3975,254.9566 L674.7674,252.8226 L674.7674,252.8226 L666.4523,244.5075 L633.192,244.5075 A0,0 0 0 0 633.192,244.5075 " fill="#ECECEC" filter="url(#f19tztg0nthtd3)" style="stroke:#383838;stroke-width:0.831506293138449;"/><path d="M666.4523,244.5075 L666.4523,252.8226 L674.7674,252.8226 L666.4523,244.5075 " fill="#ECECEC" style="stroke:#383838;stroke-width:0.831506293138449;"/><text fill="#000000" font-family="sans-serif" font-size="10.8096" lengthAdjust="spacingAndGlyphs" textLength="24.1137" x="638.1811" y="258.6987">[^1]</text><rect fill="#F8F8F8" filter="url(#f19tztg0nthtd3)" height="28.2452" rx="10.3938" ry="10.3938" style="stroke:#383838;stroke-width:1.2472594397076735;" width="56.5424" x="691.3975" y="240.8339"/><text fill="#000000" font-family="sans-serif" font-size="9.9781" lengthAdjust="spacingAndGlyphs" textLength="39.9123" x="699.7125" y="258.4109">現象確認</text><line style="stroke:#000000;stroke-width:1.663012586276898;" x1="629.0345" x2="629.0345" y1="10.5976" y2="381.2806"/><rect fill="#D3D3D3" height="370.6829" style="stroke:#D3D3D3;stroke-width:0.831506293138449;" width="252.7779" x="756.255" y="10.5976"/><rect fill="#F8F8F8" filter="url(#f19tztg0nthtd3)" height="28.2452" rx="10.3938" ry="10.3938" style="stroke:#383838;stroke-width:1.2472594397076735;" width="96.4547" x="761.244" y="240.8339"/><text fill="#000000" font-family="sans-serif" font-size="9.9781" lengthAdjust="spacingAndGlyphs" textLength="79.8246" x="769.5591" y="258.4109">計画の議題にのる</text><ellipse cx="809.4714" cy="305.6654" fill="#FFFFFF" filter="url(#f19tztg0nthtd3)" rx="9.1466" ry="9.1466" style="stroke:#000000;stroke-width:0.831506293138449;"/><ellipse cx="809.4714" cy="305.6654" fill="#000000" rx="4.989" ry="4.989" style="stroke:#7F7F7F;stroke-width:0.831506293138449;"/><path d="M866.0138,306 L866.0138,326.8981 A0,0 0 0 0 866.0138,326.8981 L907.5891,326.8981 A0,0 0 0 0 907.5891,326.8981 L907.5891,320.9671 L924.2192,316.449 L907.5891,314.3151 L907.5891,314.3151 L899.2741,306 L866.0138,306 A0,0 0 0 0 866.0138,306 " fill="#ECECEC" filter="url(#f19tztg0nthtd3)" style="stroke:#383838;stroke-width:0.831506293138449;"/><path d="M899.2741,306 L899.2741,314.3151 L907.5891,314.3151 L899.2741,306 " fill="#ECECEC" style="stroke:#383838;stroke-width:0.831506293138449;"/><text fill="#000000" font-family="sans-serif" font-size="10.8096" lengthAdjust="spacingAndGlyphs" textLength="24.1137" x="871.0028" y="320.1912">[^2]</text><rect fill="#F8F8F8" filter="url(#f19tztg0nthtd3)" height="39.8603" rx="10.3938" ry="10.3938" style="stroke:#383838;stroke-width:1.2472594397076735;" width="76.4986" x="924.2192" y="296.5189"/><text fill="#000000" font-family="sans-serif" font-size="9.9781" lengthAdjust="spacingAndGlyphs" textLength="59.8685" x="932.5343" y="314.0958">トリアージの</text><text fill="#000000" font-family="sans-serif" font-size="9.9781" lengthAdjust="spacingAndGlyphs" textLength="49.8904" x="932.5343" y="325.7109">議題にのる</text><ellipse cx="962.4685" cy="362.1559" fill="#FFFFFF" filter="url(#f19tztg0nthtd3)" rx="9.1466" ry="9.1466" style="stroke:#000000;stroke-width:0.831506293138449;"/><ellipse cx="962.4685" cy="362.1559" fill="#000000" rx="4.989" ry="4.989" style="stroke:#7F7F7F;stroke-width:0.831506293138449;"/><line style="stroke:#000000;stroke-width:1.663012586276898;" x1="756.255" x2="756.255" y1="10.5976" y2="381.2806"/><line style="stroke:#000000;stroke-width:1.663012586276898;" x1="1009.0329" x2="1009.0329" y1="10.5976" y2="381.2806"/><line style="stroke:#383838;stroke-width:1.2472594397076735;" x1="166.3013" x2="166.3013" y1="232.4929" y2="261.5956"/><polygon fill="#383838" points="162.9752,253.2806,166.3013,261.5956,169.6273,253.2806,166.3013,256.6066" style="stroke:#383838;stroke-width:0.831506293138449;"/><line style="stroke:#383838;stroke-width:1.2472594397076735;" x1="469.3853" x2="419.9107" y1="156.8778" y2="156.8778"/><line style="stroke:#383838;stroke-width:1.2472594397076735;" x1="419.9107" x2="419.9107" y1="156.8778" y2="183.486"/><polygon fill="#383838" points="416.5847,175.1709,419.9107,183.486,423.2367,175.1709,419.9107,178.497" style="stroke:#383838;stroke-width:0.831506293138449;"/><line style="stroke:#383838;stroke-width:1.2472594397076735;" x1="516.7812" x2="573.7393" y1="156.8778" y2="156.8778"/><line style="stroke:#383838;stroke-width:1.2472594397076735;" x1="573.7393" x2="573.7393" y1="156.8778" y2="183.486"/><polygon fill="#383838" points="570.4133,175.1709,573.7393,183.486,577.0654,175.1709,573.7393,178.497" style="stroke:#383838;stroke-width:0.831506293138449;"/><line style="stroke:#383838;stroke-width:1.2472594397076735;" x1="383.948" x2="314.7251" y1="120.2915" y2="120.2915"/><line style="stroke:#383838;stroke-width:1.2472594397076735;" x1="314.7251" x2="314.7251" y1="120.2915" y2="146.8997"/><polygon fill="#383838" points="311.3991,138.5847,314.7251,146.8997,318.0512,138.5847,314.7251,141.9107" style="stroke:#383838;stroke-width:0.831506293138449;"/><line style="stroke:#383838;stroke-width:1.2472594397076735;" x1="431.3439" x2="493.0832" y1="120.2915" y2="120.2915"/><line style="stroke:#383838;stroke-width:1.2472594397076735;" x1="493.0832" x2="493.0832" y1="120.2915" y2="146.8997"/><polygon fill="#383838" points="489.7572,138.5847,493.0832,146.8997,496.4093,138.5847,493.0832,141.9107" style="stroke:#383838;stroke-width:0.831506293138449;"/><line style="stroke:#383838;stroke-width:1.2472594397076735;" x1="809.4714" x2="809.4714" y1="269.0792" y2="296.5189"/><polygon fill="#383838" points="806.1454,288.2038,809.4714,296.5189,812.7974,288.2038,809.4714,291.5298" style="stroke:#383838;stroke-width:0.831506293138449;"/><line style="stroke:#383838;stroke-width:1.2472594397076735;" x1="962.4685" x2="962.4685" y1="336.3792" y2="353.0093"/><polygon fill="#383838" points="959.1425,344.6943,962.4685,353.0093,965.7946,344.6943,962.4685,348.0203" style="stroke:#383838;stroke-width:0.831506293138449;"/><line style="stroke:#383838;stroke-width:1.2472594397076735;" x1="70.678" x2="70.678" y1="48.808" y2="52.9655"/><line style="stroke:#383838;stroke-width:1.2472594397076735;" x1="70.678" x2="236.1478" y1="52.9655" y2="52.9655"/><line style="stroke:#383838;stroke-width:1.2472594397076735;" x1="236.1478" x2="236.1478" y1="52.9655" y2="65.4381"/><polygon fill="#383838" points="232.8218,57.123,236.1478,65.4381,239.4738,57.123,236.1478,60.449" style="stroke:#383838;stroke-width:0.831506293138449;"/><line style="stroke:#383838;stroke-width:1.2472594397076735;" x1="314.7251" x2="314.7251" y1="175.1449" y2="189.6963"/><line style="stroke:#383838;stroke-width:1.2472594397076735;" x1="314.7251" x2="166.3013" y1="189.6963" y2="189.6963"/><line style="stroke:#383838;stroke-width:1.2472594397076735;" x1="166.3013" x2="166.3013" y1="189.6963" y2="204.2477"/><polygon fill="#383838" points="162.9752,195.9326,166.3013,204.2477,169.6273,195.9326,166.3013,199.2586" style="stroke:#383838;stroke-width:0.831506293138449;"/><line style="stroke:#383838;stroke-width:1.2472594397076735;" x1="419.9107" x2="419.9107" y1="211.7312" y2="226.2826"/><line style="stroke:#383838;stroke-width:1.2472594397076735;" x1="419.9107" x2="809.4714" y1="226.2826" y2="226.2826"/><line style="stroke:#383838;stroke-width:1.2472594397076735;" x1="809.4714" x2="809.4714" y1="226.2826" y2="240.8339"/><polygon fill="#383838" points="806.1454,232.5189,809.4714,240.8339,812.7974,232.5189,809.4714,235.8449" style="stroke:#383838;stroke-width:0.831506293138449;"/><line style="stroke:#383838;stroke-width:1.2472594397076735;" x1="573.7393" x2="573.7393" y1="211.7312" y2="226.2826"/><line style="stroke:#383838;stroke-width:1.2472594397076735;" x1="573.7393" x2="719.6687" y1="226.2826" y2="226.2826"/><line style="stroke:#383838;stroke-width:1.2472594397076735;" x1="719.6687" x2="719.6687" y1="226.2826" y2="240.8339"/><polygon fill="#383838" points="716.3427,232.5189,719.6687,240.8339,722.9947,232.5189,719.6687,235.8449" style="stroke:#383838;stroke-width:0.831506293138449;"/><line style="stroke:#383838;stroke-width:1.2472594397076735;" x1="719.6687" x2="719.6687" y1="269.0792" y2="283.6305"/><line style="stroke:#383838;stroke-width:1.2472594397076735;" x1="719.6687" x2="962.4685" y1="283.6305" y2="283.6305"/><line style="stroke:#383838;stroke-width:1.2472594397076735;" x1="962.4685" x2="962.4685" y1="283.6305" y2="296.5189"/><polygon fill="#383838" points="959.1425,288.2038,962.4685,296.5189,965.7946,288.2038,962.4685,291.5298" style="stroke:#383838;stroke-width:0.831506293138449;"/><line style="stroke:#383838;stroke-width:1.2472594397076735;" x1="236.1478" x2="236.1478" y1="93.6833" y2="97.8408"/><line style="stroke:#383838;stroke-width:1.2472594397076735;" x1="236.1478" x2="407.646" y1="97.8408" y2="97.8408"/><line style="stroke:#383838;stroke-width:1.2472594397076735;" x1="407.646" x2="407.646" y1="97.8408" y2="110.3134"/><polygon fill="#383838" points="404.3199,101.9984,407.646,110.3134,410.972,101.9984,407.646,105.3244" style="stroke:#383838;stroke-width:0.831506293138449;"/><text fill="#000000" font-family="sans-serif" font-size="14.9671" lengthAdjust="spacingAndGlyphs" textLength="112.2533" x="16.6301" y="24.4905">Googleフォーム</text><text fill="#000000" font-family="sans-serif" font-size="14.9671" lengthAdjust="spacingAndGlyphs" textLength="39.9123" x="185.4259" y="24.4905">Slack</text><text fill="#000000" font-family="sans-serif" font-size="14.9671" lengthAdjust="spacingAndGlyphs" textLength="24.9452" x="440.9062" y="24.4905">Jira</text><text fill="#000000" font-family="sans-serif" font-size="14.9671" lengthAdjust="spacingAndGlyphs" textLength="104.7698" x="640.2598" y="24.4905">トリアージ担当</text><text fill="#000000" font-family="sans-serif" font-size="14.9671" lengthAdjust="spacingAndGlyphs" textLength="64.026" x="850.6309" y="24.4905">週次MTG</text></g></svg>